<?xml version="1.0" standalone="no"?>
<!DOCTYPE svg PUBLIC "-//W3C//DTD SVG 20010904//EN"
 "http://www.w3.org/TR/2001/REC-SVG-20010904/DTD/svg10.dtd">
<svg version="1.0" xmlns="http://www.w3.org/2000/svg"
 width="896.000000pt" height="896.000000pt" viewBox="0 0 896.000000 896.000000"
 preserveAspectRatio="xMidYMid meet">
<metadata>
Created by potrace 1.14, written by Peter Selinger 2001-2017
</metadata>
<g transform="translate(0.000000,896.000000) scale(0.100000,-0.100000)"
fill="#000000" stroke="none">
<path d="M285 8559 c-2 -3 -4 -48 -4 -100 -1 -52 -1 -101 -2 -109 0 -8 0 -58
1 -110 1 -52 1 -99 -1 -105 -1 -5 -1 -14 0 -19 3 -12 3 -178 0 -191 -1 -5 0
-14 1 -20 2 -12 2 -127 0 -140 -2 -5 -1 -14 0 -20 1 -5 2 -37 1 -70 -1 -33 -2
-64 -2 -70 0 -5 0 -53 0 -105 1 -52 1 -102 0 -110 0 -8 0 -58 1 -110 1 -52 1
-99 -1 -105 -1 -5 -1 -14 0 -19 3 -12 3 -178 0 -191 -1 -5 0 -14 1 -20 2 -12
2 -127 0 -140 -2 -5 -1 -14 0 -20 1 -5 2 -37 1 -70 -1 -33 -2 -64 -2 -70 0 -5
0 -53 0 -105 1 -52 1 -102 0 -110 0 -8 0 -58 1 -110 1 -52 1 -99 -1 -105 -1
-5 -1 -14 0 -19 3 -12 3 -178 0 -191 -1 -5 0 -14 1 -20 2 -12 2 -127 0 -140
-2 -5 -1 -14 0 -20 1 -5 2 -37 1 -70 -1 -33 -2 -64 -2 -70 0 -5 0 -53 0 -105
1 -52 1 -102 0 -110 0 -8 0 -58 1 -110 1 -52 1 -99 -1 -105 -1 -5 -1 -14 0
-19 3 -12 3 -178 0 -191 -1 -5 0 -14 1 -20 2 -12 2 -127 0 -140 -2 -5 -1 -14
0 -20 1 -5 2 -37 1 -70 -1 -33 -2 -64 -2 -70 0 -5 0 -53 0 -105 1 -52 1 -102
0 -110 0 -8 0 -58 1 -110 1 -52 1 -99 -1 -105 -1 -5 -1 -14 0 -19 3 -12 3
-178 0 -191 -1 -5 0 -14 1 -20 2 -12 2 -127 0 -140 -2 -5 -1 -14 0 -20 1 -5 2
-37 1 -70 -1 -33 -2 -64 -2 -70 0 -5 0 -53 0 -105 1 -52 1 -102 0 -110 0 -8 0
-58 1 -110 1 -52 1 -99 -1 -105 -1 -5 -1 -14 0 -19 3 -12 3 -178 0 -191 -1 -5
0 -14 1 -20 2 -12 2 -127 0 -140 -2 -5 -1 -14 0 -20 1 -5 2 -37 1 -70 -1 -33
-2 -64 -2 -70 0 -5 0 -53 0 -105 1 -52 1 -102 0 -110 0 -8 0 -58 1 -110 1 -52
1 -99 -1 -105 -1 -5 -1 -14 0 -19 3 -12 3 -178 0 -191 -1 -5 0 -14 1 -20 2
-12 2 -127 0 -140 -2 -5 -1 -14 0 -20 1 -5 2 -37 1 -70 -1 -33 -2 -64 -2 -70
0 -5 0 -53 0 -105 1 -52 1 -102 0 -110 0 -8 0 -58 1 -110 1 -52 1 -99 -1 -105
-1 -5 -1 -14 0 -19 3 -12 3 -178 0 -191 -1 -5 0 -14 1 -20 2 -12 2 -127 0
-140 -2 -5 -1 -14 0 -20 1 -5 2 -37 1 -70 -1 -33 -2 -64 -2 -70 0 -5 0 -53 0
-105 1 -52 1 -102 0 -110 0 -8 0 -58 1 -110 1 -52 1 -99 -1 -105 -1 -5 0 -14
1 -20 1 -5 2 -40 1 -76 -1 -46 3 -68 11 -71 7 -2 278 -3 603 -3 l589 1 0 2997
0 2997 43 0 c31 0 43 -4 43 -15 0 -8 11 -38 24 -67 14 -30 34 -78 46 -108 12
-30 28 -71 37 -90 8 -19 19 -44 23 -55 5 -11 18 -41 29 -67 11 -27 17 -48 14
-48 -3 0 -1 -6 5 -13 6 -6 20 -37 32 -67 12 -30 27 -66 33 -80 6 -14 11 -27
12 -30 0 -3 11 -27 23 -54 12 -27 22 -54 22 -60 0 -7 4 -16 8 -22 5 -5 24 -47
42 -94 18 -47 38 -91 43 -97 5 -7 7 -13 3 -13 -3 0 7 -27 24 -60 17 -33 31
-63 31 -67 2 -13 15 -46 126 -313 58 -140 128 -309 155 -375 27 -66 55 -133
63 -150 7 -16 28 -66 45 -110 33 -82 43 -106 79 -187 11 -26 21 -51 21 -54 0
-3 6 -20 14 -37 7 -18 30 -72 51 -122 20 -49 42 -103 50 -120 7 -16 32 -77 55
-135 23 -58 53 -130 67 -160 14 -30 26 -59 28 -65 1 -5 7 -21 13 -35 45 -107
74 -177 75 -185 2 -5 5 -15 9 -20 3 -6 25 -57 48 -115 23 -58 45 -109 48 -115
4 -5 7 -14 8 -20 2 -10 122 -301 149 -360 7 -16 42 -102 78 -190 36 -88 95
-232 132 -320 37 -88 69 -170 72 -182 3 -13 9 -23 14 -23 5 0 9 -6 9 -14 0
-12 35 -101 75 -191 7 -16 36 -88 65 -160 28 -71 57 -143 65 -160 28 -64 36
-84 95 -225 33 -80 60 -151 60 -157 0 -7 5 -13 12 -13 6 0 8 -3 5 -6 -4 -4 0
-19 7 -33 8 -14 24 -51 36 -81 11 -30 25 -64 30 -75 5 -11 30 -72 56 -135 25
-63 55 -134 65 -157 10 -23 19 -46 19 -52 0 -5 5 -13 12 -17 6 -4 230 -8 497
-8 454 -1 487 0 504 17 10 10 15 22 12 27 -3 4 -2 10 2 12 5 1 19 30 32 63 13
33 34 85 47 115 13 30 62 149 109 265 48 116 95 229 106 252 10 24 19 47 19
51 0 5 6 22 14 38 8 16 49 112 90 214 42 102 80 194 85 205 5 11 30 72 56 135
26 63 53 129 60 145 7 17 34 82 60 145 25 63 52 129 60 145 7 17 25 59 39 95
15 36 31 74 36 85 4 11 20 46 34 78 14 31 23 57 20 57 -3 0 1 12 9 27 8 16 19
39 25 53 6 14 22 52 36 85 61 145 137 331 140 340 1 6 10 28 20 50 9 22 31 74
48 115 17 41 59 143 93 225 35 83 97 233 138 335 42 102 84 203 93 225 10 22
18 42 19 45 3 9 17 44 36 87 11 23 19 44 19 47 0 3 11 29 24 58 13 29 54 127
91 218 37 91 76 185 87 210 11 24 21 49 22 55 2 5 10 28 20 50 10 22 27 63 38
90 11 28 25 61 31 75 6 14 11 27 12 30 1 3 7 19 15 35 43 98 50 115 50 120 0
5 24 63 50 120 5 11 28 67 51 125 23 58 46 111 51 118 6 6 8 12 4 12 -3 0 10
35 30 77 19 43 35 80 36 83 1 8 96 241 137 335 38 87 61 150 60 161 0 4 4 10
10 14 6 3 13 16 15 27 3 12 12 35 20 52 9 16 16 37 16 46 0 8 5 15 10 15 6 0
9 3 8 8 -2 4 3 21 10 39 12 28 18 31 50 29 l37 -2 2 -2939 c1 -1617 2 -2965 2
-2995 l1 -55 598 0 597 0 6 30 c3 17 2 37 -3 46 -4 9 -5 19 -1 22 8 8 7 212
-1 225 -3 6 -2 13 2 16 8 5 9 29 2 61 -1 6 -2 13 -1 18 6 20 3 216 -3 225 -3
6 -2 13 2 16 8 5 9 29 2 61 -1 6 -2 13 -1 18 3 11 4 210 1 222 -1 6 -2 15 -1
20 3 13 3 529 0 541 -1 5 -1 12 0 17 3 11 4 210 1 222 -1 6 -2 12 -1 15 3 7 3
1013 1 1025 -1 6 -2 13 -1 18 3 11 4 210 1 222 -1 6 -2 12 -1 15 2 9 3 534 1
545 -1 6 -2 13 -1 18 6 20 3 216 -3 225 -3 6 -2 13 2 16 8 5 9 29 2 61 -1 6
-2 13 -1 18 6 20 3 216 -3 225 -3 6 -2 13 2 16 8 5 9 29 2 61 -1 6 -2 13 -1
18 6 20 3 216 -3 225 -3 6 -2 13 2 16 8 5 9 29 2 61 -1 6 -2 13 -1 18 3 11 4
210 1 222 -1 6 -2 15 -1 20 3 14 3 209 1 220 -2 6 -2 13 -1 18 3 11 4 210 1
222 -1 6 -2 12 -1 15 2 7 3 694 1 705 -2 6 -2 13 -1 18 3 11 4 210 1 222 -1 6
-2 12 -1 15 2 7 3 694 1 705 -2 6 -2 13 -1 18 3 11 4 210 1 222 -1 6 -2 15 -1
20 3 14 3 209 1 220 -2 6 -2 13 -1 18 6 20 3 216 -3 225 -3 6 -2 13 2 16 8 5
9 29 2 61 -1 6 -2 13 -1 18 6 20 3 216 -3 225 -3 6 -2 13 2 16 8 5 9 29 2 61
-1 6 -2 15 0 20 4 23 2 164 -3 172 -3 4 -345 8 -760 8 -767 0 -787 -1 -787
-35 0 -4 -8 -25 -17 -46 -9 -22 -17 -41 -18 -44 -1 -3 -7 -16 -12 -30 -6 -14
-32 -77 -58 -140 -26 -63 -52 -126 -58 -140 -6 -14 -11 -27 -12 -30 -4 -11
-19 -47 -36 -85 -10 -23 -19 -47 -21 -55 -2 -8 -5 -17 -8 -20 -9 -8 -50 -114
-50 -128 0 -6 -4 -12 -8 -12 -5 0 -9 -6 -9 -12 -1 -7 -17 -50 -37 -95 -19 -46
-32 -83 -28 -83 4 0 2 -4 -4 -8 -6 -4 -27 -47 -47 -97 -61 -152 -147 -358
-163 -394 -9 -18 -17 -39 -18 -45 -1 -6 -10 -29 -20 -51 -43 -97 -168 -401
-170 -413 -1 -7 -8 -18 -14 -24 -7 -7 -12 -18 -12 -25 0 -7 -11 -37 -25 -67
-14 -30 -25 -61 -25 -68 0 -8 -4 -18 -8 -24 -5 -5 -28 -56 -51 -114 -24 -58
-47 -114 -52 -125 -4 -11 -27 -65 -49 -120 -23 -55 -45 -109 -50 -120 -67
-153 -79 -183 -72 -189 3 -3 0 -6 -6 -6 -7 0 -12 -9 -12 -19 0 -11 -4 -22 -9
-25 -5 -3 -11 -16 -15 -29 -3 -13 -18 -50 -32 -83 -15 -32 -28 -64 -30 -70 -2
-13 -60 -149 -80 -190 -8 -17 -17 -37 -18 -45 -2 -8 -8 -25 -14 -39 -53 -125
-124 -297 -126 -305 -1 -5 -12 -30 -24 -54 -12 -25 -22 -48 -22 -52 0 -3 -10
-28 -22 -55 -12 -27 -22 -51 -23 -54 0 -3 -15 -41 -34 -85 -18 -44 -39 -93
-46 -110 -7 -16 -30 -70 -50 -119 -21 -49 -38 -96 -38 -103 0 -7 -3 -13 -7
-13 -3 0 -12 -17 -19 -38 -12 -32 -25 -65 -61 -147 -5 -11 -41 -99 -80 -195
-72 -177 -91 -220 -115 -275 -7 -16 -32 -77 -56 -135 -23 -58 -50 -123 -59
-145 -18 -42 -32 -77 -35 -85 -1 -3 -6 -16 -12 -30 -129 -308 -173 -416 -173
-427 0 -7 -4 -13 -9 -13 -5 0 -13 -14 -16 -32 -4 -18 -11 -39 -16 -48 -12 -22
-49 -108 -49 -114 0 -3 -11 -29 -24 -58 -13 -29 -43 -100 -66 -158 -23 -58
-48 -118 -55 -135 -8 -16 -20 -46 -28 -66 -11 -28 -22 -37 -43 -40 -45 -6 -75
1 -81 19 -3 9 -14 37 -25 62 -26 59 -44 104 -53 130 -1 3 -12 28 -24 55 -13
28 -24 55 -25 60 -4 15 -23 60 -46 107 -11 23 -20 46 -20 51 0 4 -11 33 -25
63 -14 30 -25 57 -25 59 0 3 -8 24 -19 48 -10 23 -38 89 -61 147 -23 58 -51
123 -60 145 -10 22 -40 92 -65 155 -26 63 -52 126 -58 140 -6 14 -11 27 -12
30 -1 3 -9 23 -19 45 -10 22 -27 63 -38 90 -33 84 -109 268 -129 312 -10 24
-19 45 -19 48 0 3 -9 24 -19 48 -11 23 -43 98 -71 167 -48 118 -56 137 -80
193 -5 12 -26 63 -46 112 -20 50 -45 109 -55 132 -11 24 -32 76 -48 115 -25
66 -133 328 -166 403 -7 17 -17 41 -23 55 -5 14 -22 51 -36 83 -14 32 -26 64
-26 72 0 7 -4 16 -9 19 -5 3 -12 17 -15 31 -4 14 -20 55 -36 91 -17 35 -30 67
-30 70 0 3 -6 20 -14 37 -8 18 -27 61 -41 97 -14 36 -32 79 -40 95 -7 17 -23
54 -35 84 -11 30 -30 75 -42 100 -11 25 -21 50 -23 56 -1 5 -10 28 -20 50 -22
51 -37 90 -34 90 1 0 -4 11 -11 25 -8 14 -15 30 -16 35 -4 12 -138 335 -165
392 -10 24 -19 50 -19 58 0 8 -4 15 -10 15 -5 0 -10 7 -10 15 0 8 -9 34 -19
58 -18 40 -26 60 -31 82 -1 6 -9 19 -16 30 -8 11 -14 27 -14 37 0 10 -5 18
-10 18 -6 0 -9 3 -9 8 1 4 0 10 -1 15 -1 4 -3 10 -4 15 -1 4 -11 28 -23 54
-12 25 -24 57 -28 70 -4 12 -11 28 -15 33 -4 6 -22 48 -40 95 -19 47 -40 96
-47 109 -6 14 -10 28 -7 33 3 4 0 8 -5 8 -6 0 -11 8 -11 18 0 10 -5 23 -11 29
-6 6 -12 17 -13 24 -3 15 -6 22 -77 194 -27 66 -58 138 -69 161 -11 23 -20 44
-20 48 0 6 -117 290 -146 353 -8 17 -14 34 -14 38 0 4 -7 21 -15 38 -20 44
-106 250 -109 262 -2 6 -12 30 -23 55 l-20 45 -762 0 c-420 0 -765 -3 -766 -6z"/>
</g>
</svg>
